<svg viewBox="0 0 1920 900" xmlns="http://www.w3.org/2000/svg">
  <g fill="#2a1212" opacity=".9">
    <!-- Main ruined wall, jagged and broken -->
    <path d="M0 720 L120 720 L120 650 L160 650 L160 600 L200 600 L200 520 L240 520 L240 420 L320 420 L320 390 L350 390 L340 410 L400 420 L480 420 L470 400 L510 390 L480 380 L560 380 L540 410 L600 420 L640 420 L630 400 L700 410 L720 420 L800 420 L790 400 L850 410 L880 420 L960 420 L950 400 L1000 410 L1040 420 L1120 420 L1110 400 L1170 410 L1200 420 L1280 420 L1270 400 L1330 410 L1360 420 L1440 420 L1430 400 L1490 410 L1520 420 L1600 420 L1590 400 L1650 410 L1680 420 L1760 420 L1750 400 L1810 410 L1840 420 L1920 420 L1920 900 L0 900 Z"/>
    <!-- Broken left tower -->
    <rect x="860" y="200" width="60" height="120" opacity=".7"/>
    <polygon points="860,200 900,200 900,260 880,250 860,270" fill="#2a1212" opacity=".7"/>
    <!-- Broken right tower, missing top -->
    <rect x="980" y="160" width="50" height="140" opacity=".6"/>
    <polygon points="980,160 1030,160 1030,200 1010,180 980,200" fill="#2a1212" opacity=".6"/>
    <!-- Cracks and holes -->
    <rect x="1000" y="350" width="18" height="40" fill="#1a0a0a" opacity=".7"/>
    <rect x="900" y="370" width="12" height="30" fill="#1a0a0a" opacity=".6"/>
    <polygon points="1200,420 1210,440 1220,420" fill="#1a0a0a" opacity=".7"/>
    <polygon points="1400,420 1410,440 1420,420" fill="#1a0a0a" opacity=".7"/>
    <!-- Rubble at base -->
    <ellipse cx="950" cy="900" rx="60" ry="18" fill="#1a0a0a" opacity=".5"/>
    <ellipse cx="1100" cy="900" rx="40" ry="12" fill="#1a0a0a" opacity=".4"/>
  </g>
</svg>
