<svg viewBox="0 0 1920 900" xmlns="http://www.w3.org/2000/svg">
  <g fill="#2a1212" opacity=".9">
    <path d="M0 720 L160 720 L160 600 L200 600 L200 520 L240 520 L240 420 L320 420 L320 380 L400 380 L400 420 L480 420 L480 380 L560 380 L560 420 L640 420 L640 380 L720 380 L720 420 L800 420 L800 380 L880 380 L880 420 L960 420 L960 380 L1040 380 L1040 420 L1120 420 L1120 380 L1200 380 L1200 420 L1280 420 L1280 380 L1360 380 L1360 420 L1440 420 L1440 380 L1520 380 L1520 420 L1600 420 L1600 380 L1680 380 L1680 420 L1760 420 L1760 380 L1840 380 L1840 420 L1920 420 L1920 900 L0 900 Z"/>
    <rect x="860" y="200" width="80" height="220" opacity=".7"/>
    <rect x="980" y="160" width="60" height="260" opacity=".6"/>
  </g>
</svg>
